<?xml version="1.0" standalone="no"?>
<svg viewBox="0 0 200 200" xmlns="http://www.w3.org/2000/svg">
  <path fill="#F1C21B" d="M16,-29.7C26.6,-18.2,44.9,-23.5,49.2,-20.6C53.6,-17.6,44,-6.3,36,0.8C28.1,7.9,22,10.8,19.4,20.7C16.8,30.5,17.8,47.4,15.2,45.2C12.5,43.1,6.1,22,-4.4,17.7C-14.9,13.4,-29.5,25.8,-45.2,27.9C-60.9,30,-77.7,21.8,-76.3,12.7C-74.9,3.6,-55.3,-6.3,-45.8,-18.3C-36.2,-30.3,-36.8,-44.3,-30.9,-57.9C-25,-71.5,-12.5,-84.8,-4.9,-77.2C2.7,-69.6,5.5,-41.2,16,-29.7Z" transform="translate(100 100)" />
</svg>
