<?xml version="1.0" standalone="no"?>
<svg viewBox="0 0 200 200" xmlns="http://www.w3.org/2000/svg">
  <path fill="#FF0066" d="M11.1,-11.5C18.2,-15.1,30.5,-19.9,38.8,-18.2C47,-16.5,51.4,-8.2,44.5,-4C37.6,0.3,19.5,0.6,13.1,5.5C6.6,10.3,11.8,19.8,11.5,32.4C11.3,45.1,5.6,60.8,2.2,57C-1.2,53.2,-2.5,29.8,-6.8,19.6C-11.1,9.3,-18.6,12.1,-27.4,11.1C-36.3,10,-46.6,5,-50.6,-2.3C-54.7,-9.7,-52.4,-19.3,-43.4,-20.1C-34.3,-20.8,-18.5,-12.7,-10.1,-8.4C-1.7,-4.1,-0.9,-3.8,0.6,-4.7C2,-5.7,4,-8,11.1,-11.5Z" transform="translate(100 100)" />
</svg>
